<svg version="1.2" xmlns="http://www.w3.org/2000/svg" viewBox="0 0 332 340" width="332" height="340">
	<title>3c (1)</title>
	<style>
		.s0 { fill: #ffffff } 
	</style>
	<path id="Path 0" fill-rule="evenodd" class="s0" d="m148.4 26h39.6l2.6 3.3c1.4 1.7 3.1 5.1 3.7 7.4 0.9 3.2 1.8 4.4 3.7 4.8 1.4 0.4 5.4 1.8 9 3.2 3.6 1.4 9.4 4.5 13 6.8 3.6 2.4 10.4 8.3 15.1 13.2 5.5 5.7 9.7 11.1 11.9 15.3 1.8 3.6 4.1 8.1 5.1 10 0.9 1.9 2.7 7.1 3.9 11.5 1.3 4.4 2.5 12.3 3.5 27l3.5 0.5c1.9 0.3 4.1 0.9 4.7 1.3 0.7 0.4 1.3 2.4 1.3 4.5 0.1 2.3-0.6 4.3-1.7 5.4-1.3 1.2-4 1.8-17.8 2.3l-0.6 15.5c-0.3 8.5-0.9 18-1.3 21-0.5 3-1.6 8.2-2.6 11.5-1 3.3-3.1 8.9-4.7 12.5-1.6 3.6-4.5 9-10.1 17.5l2.4 9.5c1.3 5.2 2.1 10.6 1.8 12-0.5 2.4-0.1 2.6 6.3 4.3 3.7 1 13.1 4.1 20.8 6.9 7.7 2.8 20.5 8.2 28.5 12 8 3.8 16 8 17.7 9.4 1.8 1.3 4.7 4.3 9.4 10.9l-0.1 39.5h-299v-38.5l3.2-4.9c1.8-2.7 5.1-6.1 7.3-7.6 2.2-1.5 8.7-5.1 14.5-8 5.8-2.9 17.7-8 26.5-11.2 8.8-3.3 19.6-7 32-10.3l-0.3-3.5c-0.2-1.9 0.6-7.2 3.8-20l-4.8-8.3c-2.7-4.5-6-11.1-7.4-14.7-1.4-3.6-3.3-9.7-4.3-13.5-0.9-3.8-2.1-10.8-2.6-15.5-0.5-4.7-0.9-12.7-0.9-27h-7.8c-5.9 0-8.1-0.4-9.5-1.8-1-1-1.8-3.1-1.7-5 0-1.7 0.7-3.9 1.6-4.7 0.8-0.8 3.1-1.5 8.4-1.5v-5.3c0-2.8 0.7-9.1 1.5-14 0.8-4.8 3-12.6 4.8-17.5 1.9-4.8 5.1-11.4 7.2-14.7 2.1-3.3 6.8-9.1 10.4-12.9 3.6-3.7 9.3-8.7 12.6-11.1 3.3-2.3 8-5.3 10.5-6.5 2.5-1.3 7.4-3.3 11-4.5 6.2-2.1 6.5-2.4 7.3-6.1 0.4-2.2 2.1-5.3 3.9-7.2zm6.5 28.2l0.1 14.8c-4.2 3.2-6.4 4.1-7.5 4.1-1.1 0-3.1-0.8-4.5-1.9-2.1-1.7-2.5-2.9-2.7-9.1l-0.3-7.1-6.5 3.2c5.1 25.1 6.5 32.9 6.5 33.6 0 0.7-0.9 2.2-2 3.2-1.1 1.2-3.3 2-5.2 2-1.8 0-9.7-1.3-17.5-3-7.8-1.6-14.8-3-15.5-3-0.7 0-2.4 2.6-3.9 5.8-1.5 3.1-3.4 9-4.3 13-0.8 4-1.6 9.8-1.6 13v5.7l155.5-0.5c-0.4-10.4-1.3-16.4-2.2-20-0.8-3.5-2.6-8.8-3.9-11.7-1.3-2.9-2.7-5.3-3.1-5.3-0.4 0-7.5 1.4-15.8 3-8.2 1.7-16.3 3.1-18 3.1-1.6 0-3.7-0.8-4.7-1.8-1-1-1.7-3.3-1.7-5.3 0-1.9 1.3-9.8 2.9-17.5 1.6-7.7 2.7-14.2 2.6-14.5-0.2-0.2-1.7-1-3.4-1.7l-3.2-1.3c0 12.1-0.3 13.4-2.4 15.5-1.4 1.4-3.5 2.6-4.8 2.6-1.2 0-3.4-0.8-4.8-1.9-2.4-1.9-2.5-2.4-3-17.3l-0.5-15.4c-17.9-0.4-23.4-0.2-23.9 0.2-0.5 0.4-0.8 7.4-0.7 15.5zm-47.1 23.7c0.1 0.3 3.8 1.3 8.3 2.1 7.9 1.5 8 1.5 7.6-0.5-0.3-1-1-4.5-1.5-7.7-0.6-3.2-1.2-5.7-1.4-5.7-0.1 0-3.2 2.5-6.7 5.5-3.6 3.1-6.4 5.9-6.3 6.3zm104.4 3c0.2 0.1 3.6-0.3 7.6-1 4-0.8 7.3-1.6 7.3-1.9 0-0.2-2.2-2.5-4.8-5-2.6-2.5-5.4-5.1-6.3-5.7-1.2-1-1.6-0.1-2.8 6.1-0.7 3.9-1.1 7.3-1 7.5zm-111.9 78.4c0.4 12.4 1.1 18 2.7 23.7 1.2 4.2 4.3 12 7 17.5 3.1 6.4 7.2 12.7 11.2 17.4 3.5 4.1 9 9.4 12.3 11.9 3.3 2.5 8.7 5.8 12 7.4 3.3 1.5 8.7 3.5 12 4.3 3.3 0.9 7.8 1.6 10 1.5 2.2 0 7-0.7 10.5-1.5 3.6-0.9 10.1-3.4 14.5-5.7 5.9-3 10.2-6.4 16.1-12.2 4.4-4.4 10.1-11.4 12.6-15.6 2.6-4.1 6.1-10.8 7.7-15 1.6-4.1 3.7-10.9 4.6-15.2 0.9-4.8 1.5-12.9 1.5-21.3v-13.5h-135.2zm100.2 89.3c-3.3 1.8-9.6 4.3-14 5.6l-8 2.2c6.8 14.9 9.2 20.2 9.6 21.4 0.8 2.1 1.5 1.5 8.2-7.5 3.9-5.4 8.2-11.1 9.5-12.7 1.3-1.7 4.8-6.6 7.8-11 3.3-4.7 5.4-8.7 5.1-9.7-0.4-1.3-1.7-0.6-6.4 3.3-3.2 2.8-8.5 6.5-11.8 8.4zm-79.1-2.3c3 4.6 6.4 9.4 7.6 10.8 1.2 1.4 5.4 6.9 9.4 12.3 3.9 5.4 7.4 9.7 7.9 9.7 0.4 0 0.7-0.1 0.7-0.3 0-0.1 2.2-5.1 4.9-11.2l4.9-11c-12.6-3.6-18.8-6.1-21.8-7.8-3-1.8-8.2-5.3-11.5-8-3.3-2.6-6.3-4.7-6.7-4.7-0.5 0-0.8 0.4-0.8 1 0 0.6 2.4 4.7 5.4 9.2zm-33.4 16.8c-4.7 1.5-15.7 6-24.5 9.9-8.8 3.9-18.7 8.6-22 10.5-3.3 1.8-7 4.8-8.3 6.7-1.9 2.9-2.2 4.7-2.2 12.6v9.3h105.5l3.4-15.5c-3.8-4.6-8.2-10.7-12.2-16.5-4-5.8-9.1-13.3-11.2-16.8-2.2-3.4-4.5-6.2-5-6.1-0.5 0-4.1 0.7-8 1.5-3.8 0.9-10.8 2.8-15.5 4.4zm132.1-0.6c-2.1 2.8-8.4 11.6-14.1 19.6l-10.3 14.5c2.2 11.4 3 14.9 3.3 15.1 0.3 0.1 24.1 0.3 53 0.4l52.5 0.1c0.5-10.5 0.2-15.3-0.4-17.4-0.6-2-2.6-5.1-4.3-6.9-1.8-1.7-10-6.4-18.3-10.4-8.2-3.9-19.7-9-25.5-11.2-5.8-2.2-13.4-4.8-17-5.7-3.6-0.9-8.5-2-10.9-2.5l-4.3-0.8zm-58.5 19.4l-2.6 6.3h17c-5.5-12.8-7.5-17.4-7.8-18.4-0.6-1.5-1-1.1-2.3 2-0.9 2.1-2.8 6.7-4.3 10.1zm-9 27l-0.6 3.3h31.5c-1.2-6.6-1.8-8.9-2-9.3-0.3-0.4-6.5-0.7-13.9-0.7-12 0-13.5 0.2-13.9 1.7-0.3 1-0.8 3.2-1.1 5z"/>
</svg>