<svg version="1.2" xmlns="http://www.w3.org/2000/svg" viewBox="0 0 210 210" width="210" height="210">
	<title>4c-svg</title>
	<style>
		.s0 { fill: #ffffff } 
	</style>
	<g id="layer1">
		<g id="g24">
			<g id="g13">
				<path id="path9" class="s0" d="m47.3 9c-2.6 0-4.7 2.1-4.7 4.7v121.1q0.1 0 0.1 0c0.4 0 0.7 0 1 0.1 1.3 0.1 2.6 0.2 3.9 0.4 0.6 0.1 1.2 0.3 1.8 0.4q0.3 0 0.5 0 0.5 0.1 0.9 0.2 0.6 0.2 1.2 0.3v-122.5c0-2.6-2.1-4.7-4.7-4.7zm35 145.9c0.1 0.1 0.2 0.3 0.4 0.6 0.2 0.3 0.3 0.6 0.5 0.9 0.1 0.6 0.3 1.1 0.4 1.6 0 0.2 0 0.5 0 0.7-0.2 1.7-0.6 3.3-1 4.9q-0.1 0.3-0.2 0.7h108.9c2.6 0 4.7-2.1 4.7-4.7 0-2.6-2.1-4.7-4.7-4.7z"/>
				<path id="path11" class="s0" d="m66.3 126.6c-1 0-1.9-0.3-2.7-0.8-0.8-0.6-1.4-1.3-1.7-2.2-0.4-0.9-0.4-1.9-0.2-2.8 0.2-0.9 0.7-1.8 1.4-2.4l23.6-22c2.1-1.9 4.5-3.4 7.1-4.4 2.6-1 5.4-1.5 8.1-1.5 2.8 0 5.6 0.5 8.2 1.5 2.6 1.1 5 2.6 7 4.5l5.4 5.1c1.8 1.7 3.9 2.9 6.2 3.7 2.2 0.8 4.7 1.1 7.1 0.9 2.4-0.2 4.7-0.9 6.8-2.1 2.1-1.1 4-2.7 5.4-4.7l34.9-46.7c0.7-1 1.9-1.7 3.1-1.9 1.2-0.1 2.5 0.2 3.5 0.9 1 0.8 1.7 1.9 1.8 3.1 0.2 1.3-0.1 2.5-0.9 3.5l-34.9 46.8c-2.2 3-5 5.5-8.3 7.3-3.3 1.8-6.9 2.9-10.6 3.2-3.8 0.4-7.5-0.1-11-1.3-3.6-1.3-6.8-3.2-9.5-5.8l-5.5-5.1c-1.1-1.1-2.5-2-4-2.6-1.5-0.6-3.1-0.9-4.7-0.9-1.6 0-3.2 0.3-4.7 0.9-1.5 0.6-2.9 1.4-4 2.5l-23.7 22q-0.4 0.3-0.7 0.6-0.4 0.2-0.8 0.4-0.4 0.1-0.9 0.2-0.4 0.1-0.8 0.1z"/>
			</g>
		</g>
		<g id="g37">
			<path id="path26" fill-rule="evenodd" class="s0" d="m64.1 134.5c4.5 1.9 8.5 4.6 12 8.1 3.4 3.4 6.1 7.5 8 11.9 1.8 4.5 2.8 9.3 2.8 14.2 0 4.8-1 9.6-2.9 14.1-1.8 4.5-4.5 8.5-8 12-3.4 3.4-7.5 6.1-11.9 8-4.5 1.8-9.3 2.8-14.2 2.8-9.8 0-19.2-3.9-26.1-10.8-6.9-6.9-10.8-16.3-10.8-26.1 0-9.8 3.9-19.2 10.8-26.1 6.9-7 16.3-10.9 26.1-10.9 4.9 0 9.7 1 14.2 2.8zm-43.3 22.1c-4.9 11.8-2.2 25.4 6.8 34.4 9 9 22.6 11.7 34.4 6.9 11.8-4.9 19.5-16.5 19.5-29.2 0-4.2-0.8-8.3-2.4-12.1-1.6-3.8-3.9-7.3-6.8-10.2-3-3-6.5-5.3-10.3-6.9-3.8-1.6-7.9-2.4-12.1-2.4-12.7 0-24.3 7.7-29.1 19.5z"/>
			<path id="path28" class="s0" d="m62.5 171.3h-12.6q-0.5 0-1-0.2-0.5-0.2-0.9-0.5-0.3-0.4-0.5-0.9-0.2-0.5-0.2-1v-14.8c0-0.8 0.2-1.4 0.7-1.9 0.5-0.5 1.2-0.8 1.9-0.8 0.7 0 1.4 0.3 1.9 0.8 0.5 0.5 0.8 1.1 0.8 1.9v12.1h9.9c0.7 0 1.4 0.3 1.9 0.8 0.5 0.5 0.8 1.2 0.8 1.9 0 0.7-0.3 1.4-0.8 1.9-0.5 0.5-1.2 0.7-1.9 0.7z"/>
		</g>
	</g>
</svg>