<?xml version="1.0" encoding="UTF-8" standalone="no"?>
<!-- Created with Inkscape (http://www.inkscape.org/) -->

<svg
   width="100mm"
   height="100mm"
   viewBox="0 0 100 100"
   version="1.1"
   id="svg5"
   inkscape:version="1.1.1 (3bf5ae0d25, 2021-09-20)"
   sodipodi:docname="c1.svg"
   xmlns:inkscape="http://www.inkscape.org/namespaces/inkscape"
   xmlns:sodipodi="http://sodipodi.sourceforge.net/DTD/sodipodi-0.dtd"
   xmlns="http://www.w3.org/2000/svg"
   xmlns:svg="http://www.w3.org/2000/svg">
  <sodipodi:namedview
     id="namedview7"
     pagecolor="#ffffff"
     bordercolor="#666666"
     borderopacity="1.0"
     inkscape:pageshadow="2"
     inkscape:pageopacity="0.0"
     inkscape:pagecheckerboard="0"
     inkscape:document-units="mm"
     showgrid="false"
     width="100mm"
     inkscape:zoom="0.73406285"
     inkscape:cx="-8.8548276"
     inkscape:cy="343.976"
     inkscape:window-width="1920"
     inkscape:window-height="1009"
     inkscape:window-x="-8"
     inkscape:window-y="-8"
     inkscape:window-maximized="1"
     inkscape:current-layer="layer1" />
  <defs
     id="defs2" />
  <g
     inkscape:label="Capa 1"
     inkscape:groupmode="layer"
     id="layer1">
    <g
       id="g206"
       transform="matrix(0.15730556,0,0,0.15730556,10.010604,10.981669)"
       style="fill:#ffffff">
      <g
         id="g160"
         style="fill:#ffffff">
	<g
   id="g158"
   style="fill:#ffffff">
		<path
   d="m 283.839,70.349 h -3.072 c -5.633,0 -10.199,4.566 -10.199,10.199 0,5.633 4.566,10.199 10.199,10.199 h 3.072 c 5.633,0 10.199,-4.566 10.199,-10.199 0,-5.633 -4.566,-10.199 -10.199,-10.199 z"
   id="path156"
   style="fill:#ffffff" />

	</g>

</g>
      <g
         id="g166"
         style="fill:#ffffff">
	<g
   id="g164"
   style="fill:#ffffff">
		<path
   d="M 244.55,70.349 H 115.69 c -5.633,0 -10.199,4.566 -10.199,10.199 0,5.633 4.566,10.199 10.199,10.199 h 128.86 c 5.633,0 10.199,-4.566 10.199,-10.199 0,-5.633 -4.566,-10.199 -10.199,-10.199 z"
   id="path162"
   style="fill:#ffffff" />

	</g>

</g>
      <g
         id="g172"
         style="fill:#ffffff">
	<g
   id="g170"
   style="fill:#ffffff">
		<path
   d="M 283.84,134.906 H 115.69 c -5.633,0 -10.199,4.566 -10.199,10.199 0,5.633 4.566,10.199 10.199,10.199 h 168.15 c 5.633,0 10.199,-4.566 10.199,-10.199 0.001,-5.633 -4.566,-10.199 -10.199,-10.199 z"
   id="path168"
   style="fill:#ffffff" />

	</g>

</g>
      <g
         id="g178"
         style="fill:#ffffff">
	<g
   id="g176"
   style="fill:#ffffff">
		<path
   d="M 283.84,199.464 H 115.69 c -5.633,0 -10.199,4.566 -10.199,10.199 0,5.633 4.566,10.199 10.199,10.199 h 168.15 c 5.633,0 10.199,-4.566 10.199,-10.199 0.001,-5.633 -4.566,-10.199 -10.199,-10.199 z"
   id="path174"
   style="fill:#ffffff" />

	</g>

</g>
      <g
         id="g184"
         style="fill:#ffffff">
	<g
   id="g182"
   style="fill:#ffffff">
		<path
   d="M 456.285,494.589 367.48,405.783 c 14.751,-17.948 23.618,-40.905 23.618,-65.896 0,-35.137 -17.528,-66.253 -44.297,-85.075 V 10.199 C 346.801,4.566 342.235,0 336.602,0 H 62.929 C 57.296,0 52.73,4.566 52.73,10.199 v 398.927 c 0,5.633 4.566,10.199 10.199,10.199 h 157.283 c 18.099,15.277 41.464,24.501 66.948,24.501 24.991,0 47.948,-8.867 65.896,-23.618 l 88.805,88.807 c 1.992,1.992 4.602,2.987 7.212,2.987 2.61,0 5.221,-0.995 7.212,-2.987 3.982,-3.985 3.982,-10.443 0,-14.426 z M 73.128,398.928 V 20.398 h 253.275 v 223.249 c -12.116,-4.959 -25.364,-7.699 -39.243,-7.699 -27.412,0 -52.376,10.672 -70.967,28.073 H 115.69 c -5.633,0 -10.199,4.566 -10.199,10.199 0,5.633 4.566,10.199 10.199,10.199 h 83.606 c -8.267,13.05 -13.709,28.058 -15.459,44.159 H 115.69 c -5.633,0 -10.199,4.566 -10.199,10.199 0,5.633 4.566,10.199 10.199,10.199 h 67.932 c 1.605,18.44 8.045,35.516 18.044,49.95 H 73.128 Z m 214.03,24.499 c -46.065,0 -83.541,-37.476 -83.541,-83.541 0,-46.065 37.476,-83.541 83.541,-83.541 46.065,0 83.541,37.476 83.541,83.541 0,46.065 -37.476,83.541 -83.541,83.541 z"
   id="path180"
   style="fill:#ffffff" />

	</g>

</g>
    </g>
  </g>
</svg>
