<?xml version="1.0" encoding="UTF-8" standalone="no"?>
<!-- Created with Inkscape (http://www.inkscape.org/) -->

<svg
   width="100mm"
   height="100mm"
   viewBox="0 0 100 100"
   version="1.1"
   id="svg5"
   inkscape:version="1.1.1 (3bf5ae0d25, 2021-09-20)"
   sodipodi:docname="c2.svg"
   xmlns:inkscape="http://www.inkscape.org/namespaces/inkscape"
   xmlns:sodipodi="http://sodipodi.sourceforge.net/DTD/sodipodi-0.dtd"
   xmlns="http://www.w3.org/2000/svg"
   xmlns:svg="http://www.w3.org/2000/svg">
  <sodipodi:namedview
     id="namedview7"
     pagecolor="#ffffff"
     bordercolor="#666666"
     borderopacity="1.0"
     inkscape:pageshadow="2"
     inkscape:pageopacity="0.0"
     inkscape:pagecheckerboard="0"
     inkscape:document-units="mm"
     showgrid="false"
     width="100mm"
     inkscape:zoom="0.73406285"
     inkscape:cx="-8.8548276"
     inkscape:cy="343.976"
     inkscape:window-width="1920"
     inkscape:window-height="1009"
     inkscape:window-x="-8"
     inkscape:window-y="-8"
     inkscape:window-maximized="1"
     inkscape:current-layer="layer1" />
  <defs
     id="defs2" />
  <g
     inkscape:label="Capa 1"
     inkscape:groupmode="layer"
     id="layer1">
    <g
       id="g27"
       transform="matrix(0.15683893,0,0,0.15683893,13.095012,12.013919)"
       style="fill:#ffffff">
	<path
   d="m 313.375,305.61 c -4.142,0 -7.5,3.358 -7.5,7.5 V 450 H 85.002 v -62.5 c 0,-4.142 -3.358,-7.5 -7.5,-7.5 h -62.5 V 15 h 290.873 v 136.89 c 0,4.142 3.358,7.5 7.5,7.5 4.142,0 7.5,-3.358 7.5,-7.5 V 7.5 c 0,-4.142 -3.358,-7.5 -7.5,-7.5 H 7.502 c -4.142,0 -7.5,3.358 -7.5,7.5 v 380 c 0,0.251 0.013,0.501 0.038,0.749 0.018,0.182 0.049,0.359 0.08,0.537 0.011,0.063 0.017,0.128 0.029,0.191 0.042,0.21 0.096,0.416 0.155,0.619 0.009,0.03 0.014,0.061 0.023,0.091 0.063,0.207 0.138,0.409 0.218,0.608 0.011,0.027 0.019,0.055 0.03,0.082 0.078,0.188 0.168,0.372 0.261,0.552 0.019,0.037 0.034,0.075 0.054,0.112 0.089,0.167 0.189,0.327 0.291,0.485 0.03,0.048 0.057,0.098 0.088,0.145 0.101,0.151 0.213,0.295 0.324,0.438 0.039,0.05 0.073,0.103 0.113,0.151 0.156,0.189 0.32,0.372 0.493,0.545 l 69.997,69.997 c 0.173,0.173 0.355,0.338 0.545,0.494 0.049,0.04 0.102,0.074 0.151,0.113 0.143,0.112 0.287,0.223 0.438,0.324 0.047,0.032 0.097,0.058 0.145,0.088 0.159,0.101 0.319,0.201 0.486,0.291 0.036,0.02 0.075,0.035 0.112,0.054 0.181,0.093 0.364,0.183 0.552,0.261 0.027,0.011 0.055,0.019 0.081,0.029 0.199,0.08 0.401,0.155 0.608,0.218 0.03,0.009 0.061,0.015 0.091,0.023 0.203,0.06 0.409,0.114 0.619,0.156 0.063,0.013 0.128,0.018 0.191,0.029 0.178,0.031 0.355,0.062 0.537,0.08 C 77,464.987 77.25,465 77.501,465 h 235.873 c 4.142,0 7.5,-3.358 7.5,-7.5 V 313.11 c 10e-4,-4.142 -3.357,-7.5 -7.499,-7.5 z M 70.002,439.394 25.608,395 h 44.394 z"
   id="path9"
   style="fill:#ffffff" />

	<path
   d="m 263.375,405 c 4.142,0 7.5,-3.358 7.5,-7.5 0,-4.142 -3.358,-7.5 -7.5,-7.5 h -64.401 c -4.142,0 -7.5,3.358 -7.5,7.5 0,4.142 3.358,7.5 7.5,7.5 z"
   id="path11"
   style="fill:#ffffff" />

	<path
   d="M 263.375,70 H 57.502 c -4.142,0 -7.5,3.358 -7.5,7.5 0,4.142 3.358,7.5 7.5,7.5 h 205.873 c 4.142,0 7.5,-3.358 7.5,-7.5 0,-4.142 -3.358,-7.5 -7.5,-7.5 z"
   id="path13"
   style="fill:#ffffff" />

	<path
   d="M 263.375,110 H 57.502 c -4.142,0 -7.5,3.358 -7.5,7.5 0,4.142 3.358,7.5 7.5,7.5 h 205.873 c 4.142,0 7.5,-3.358 7.5,-7.5 0,-4.142 -3.358,-7.5 -7.5,-7.5 z"
   id="path15"
   style="fill:#ffffff" />

	<path
   d="M 263.375,150 H 57.502 c -4.142,0 -7.5,3.358 -7.5,7.5 0,4.142 3.358,7.5 7.5,7.5 h 205.873 c 4.142,0 7.5,-3.358 7.5,-7.5 0,-4.142 -3.358,-7.5 -7.5,-7.5 z"
   id="path17"
   style="fill:#ffffff" />

	<path
   d="m 270.875,197.5 c 0,-4.142 -3.358,-7.5 -7.5,-7.5 H 57.502 c -4.142,0 -7.5,3.358 -7.5,7.5 0,4.142 3.358,7.5 7.5,7.5 h 205.873 c 4.142,0 7.5,-3.358 7.5,-7.5 z"
   id="path19"
   style="fill:#ffffff" />

	<path
   d="m 235.264,237.5 c 0,-4.142 -3.358,-7.5 -7.5,-7.5 H 57.502 c -4.142,0 -7.5,3.358 -7.5,7.5 0,4.142 3.358,7.5 7.5,7.5 h 170.263 c 4.142,0 7.499,-3.358 7.499,-7.5 z"
   id="path21"
   style="fill:#ffffff" />

	<path
   d="m 57.502,270 c -4.142,0 -7.5,3.358 -7.5,7.5 0,4.142 3.358,7.5 7.5,7.5 h 102.937 c 4.142,0 7.5,-3.358 7.5,-7.5 0,-4.142 -3.358,-7.5 -7.5,-7.5 z"
   id="path23"
   style="fill:#ffffff" />

	<path
   d="m 454.909,90.966 c -6.508,-6.508 -15.171,-10.093 -24.395,-10.093 -9.224,0 -17.887,3.584 -24.395,10.092 L 382.785,114.3 h -0.001 -10e-4 l -21.211,21.211 c 0,0 -10e-4,0 -10e-4,0 -0.001,0.001 -0.001,0.001 -0.001,0.001 L 209.957,287.128 c -0.211,0.21 -0.402,0.433 -0.582,0.661 -0.046,0.059 -0.088,0.121 -0.133,0.181 -0.135,0.182 -0.262,0.368 -0.378,0.558 -0.021,0.034 -0.046,0.064 -0.066,0.098 l -44.17,75.018 c -1.865,2.239 -2.879,5.033 -2.879,7.983 0,3.339 1.3,6.478 3.661,8.839 2.361,2.361 5.5,3.661 8.839,3.661 2.95,0 5.744,-1.015 7.983,-2.879 l 75.018,-44.17 c 0.035,-0.021 0.065,-0.046 0.1,-0.067 0.19,-0.116 0.374,-0.242 0.555,-0.376 0.061,-0.045 0.123,-0.088 0.183,-0.135 0.228,-0.18 0.45,-0.371 0.66,-0.582 L 410.36,184.305 c 0,0 10e-4,0 10e-4,-0.001 0,-0.001 0.001,-0.001 0.001,-0.001 l 21.212,-21.212 h 10e-4 0.001 l 23.334,-23.334 c 13.451,-13.452 13.451,-35.34 -0.001,-48.791 z m -49.851,77.428 -27.577,-27.578 10.607,-10.606 27.578,27.577 z M 253.444,320.008 225.867,292.431 366.875,151.423 394.452,179 Z m -43.308,27.403 -11.671,-11.671 18.343,-31.154 24.482,24.482 z m -28.382,16.711 8.85,-15.031 6.181,6.181 z m 262.549,-234.973 -18.031,18.031 -27.578,-27.577 18.032,-18.032 c 3.675,-3.675 8.572,-5.699 13.789,-5.699 5.217,0 10.113,2.024 13.789,5.699 3.675,3.675 5.699,8.572 5.699,13.789 0,5.217 -2.025,10.115 -5.7,13.789 z"
   id="path25"
   style="fill:#ffffff" />

</g>
  </g>
</svg>
